<svg width="1200" height="800" viewBox="0 0 1200 800" fill="none" xmlns="http://www.w3.org/2000/svg">
  <defs>
    <linearGradient id="bg3" x1="60" y1="30" x2="1130" y2="770" gradientUnits="userSpaceOnUse">
      <stop stop-color="#1A2434"/>
      <stop offset="1" stop-color="#0A1017"/>
    </linearGradient>
  </defs>
  <rect width="1200" height="800" rx="40" fill="url(#bg3)"/>
  <rect x="90" y="96" width="1020" height="608" rx="24" fill="#101927" stroke="#28374B" stroke-width="2"/>
  <rect x="122" y="128" width="956" height="80" rx="18" fill="#0C141E" stroke="#28374B" stroke-width="2"/>
  <rect x="154" y="160" width="120" height="18" rx="9" fill="#2DD4BF" fill-opacity="0.8"/>
  <rect x="294" y="160" width="92" height="18" rx="9" fill="#F59E0B" fill-opacity="0.72"/>
  <rect x="406" y="160" width="92" height="18" rx="9" fill="#2DD4BF" fill-opacity="0.5"/>
  <rect x="122" y="240" width="298" height="430" rx="18" fill="#0C141E" stroke="#28374B" stroke-width="2"/>
  <rect x="450" y="240" width="298" height="430" rx="18" fill="#0C141E" stroke="#28374B" stroke-width="2"/>
  <rect x="778" y="240" width="300" height="430" rx="18" fill="#0C141E" stroke="#28374B" stroke-width="2"/>
  <rect x="154" y="278" width="234" height="24" rx="12" fill="#E8F2FF" fill-opacity="0.85"/>
  <rect x="154" y="314" width="188" height="14" rx="7" fill="#9FB1C8" fill-opacity="0.8"/>
  <rect x="154" y="338" width="210" height="14" rx="7" fill="#9FB1C8" fill-opacity="0.45"/>
  <circle cx="228" cy="430" r="70" fill="#2DD4BF" fill-opacity="0.2"/>
  <circle cx="228" cy="430" r="45" fill="#2DD4BF" fill-opacity="0.6"/>
  <rect x="154" y="525" width="180" height="18" rx="9" fill="#28374B"/>
  <rect x="154" y="556" width="140" height="14" rx="7" fill="#28374B"/>
  <rect x="482" y="278" width="234" height="24" rx="12" fill="#E8F2FF" fill-opacity="0.85"/>
  <rect x="482" y="314" width="188" height="14" rx="7" fill="#9FB1C8" fill-opacity="0.8"/>
  <rect x="482" y="338" width="210" height="14" rx="7" fill="#9FB1C8" fill-opacity="0.45"/>
  <rect x="482" y="390" width="234" height="120" rx="16" fill="#111B29"/>
  <rect x="514" y="430" width="170" height="16" rx="8" fill="#2DD4BF" fill-opacity="0.8"/>
  <rect x="482" y="525" width="105" height="40" rx="10" fill="#2DD4BF" fill-opacity="0.2" stroke="#2DD4BF"/>
  <rect x="601" y="525" width="115" height="40" rx="10" fill="#F59E0B" fill-opacity="0.2" stroke="#F59E0B"/>
  <rect x="810" y="278" width="236" height="24" rx="12" fill="#E8F2FF" fill-opacity="0.85"/>
  <rect x="810" y="314" width="188" height="14" rx="7" fill="#9FB1C8" fill-opacity="0.8"/>
  <rect x="810" y="338" width="210" height="14" rx="7" fill="#9FB1C8" fill-opacity="0.45"/>
  <path d="M840 510C867 470 896 449 928 447C960 445 993 455 1016 420" stroke="#F59E0B" stroke-width="8" stroke-linecap="round"/>
  <circle cx="1016" cy="420" r="12" fill="#F59E0B"/>
</svg>
